<svg xmlns="http://www.w3.org/2000/svg" version="1.1" xmlns:xlink="http://www.w3.org/1999/xlink" xmlns:svgjs="http://svgjs.dev/svgjs" width="1000" height="815" viewBox="0 0 1000 815"><g transform="matrix(1,0,0,1,-0.6060606060606233,0.6133000281452041)"><svg viewBox="0 0 396 323" data-background-color="#aaaaaa" preserveAspectRatio="xMidYMid meet" height="815" width="1000" xmlns="http://www.w3.org/2000/svg" xmlns:xlink="http://www.w3.org/1999/xlink"><g id="tight-bounds" transform="matrix(1,0,0,1,0.2400000000000091,37.900000000000006)"><svg viewBox="0 0 395.52 247.2" height="247.2" width="395.52"><g><svg></svg></g><g><svg viewBox="0 0 395.52 247.2" height="247.2" width="395.52"><g transform="matrix(1,0,0,1,152.6767392612186,47.215199999999996)"><svg viewBox="0 0 90.1665214775628 152.7696" height="152.7696" width="90.1665214775628"><g><svg viewBox="0 0 245.65351679999995 416.21201400641706" height="152.7696" width="90.1665214775628"><g><rect width="245.65351679999995" height="11.179891553421152" x="0" y="172.32355663105622" fill="#ffffff" opacity="1" stroke-width="0" stroke="transparent" fill-opacity="1" class="rect-o-0" data-fill-palette-color="primary" rx="1%" id="o-0" data-palette-color="#ffffff"></rect></g><g><rect width="245.65351679999995" height="11.179891553421152" x="0" y="198.13681409209667" fill="#ffffff" opacity="1" stroke-width="0" stroke="transparent" fill-opacity="1" class="rect-o-1" data-fill-palette-color="primary" rx="1%" id="o-1" data-palette-color="#ffffff"></rect></g><g transform="matrix(1,0,0,1,0.6110783999999825,238.58343746075644)"><svg viewBox="0 0 244.43135999999998 177.62857654566062" height="177.62857654566062" width="244.43135999999998"><g id="textblocktransform"><svg viewBox="0 0 244.43135999999998 177.62857654566062" height="177.62857654566062" width="244.43135999999998" id="textblock"><g><svg viewBox="0 0 244.43135999999998 123.97165241379308" height="123.97165241379308" width="244.43135999999998"><g transform="matrix(1,0,0,1,0,0)"><svg width="244.43135999999998" viewBox="0.4000000059604645 -34.900001525878906 69.5999984741211 35.30000305175781" height="123.97165241379308" data-palette-color="#ffffff"><path d="M0.4-34.45L28.4-34.45 28.4-27.3 25.25-26.9Q24.6-27.4 24-29L24-29 18-29 18-5.8Q20-5 20.75-4.15L20.75-4.15 20.25 0 8.55 0 8.05-4.15Q8.7-5 10.8-5.8L10.8-5.8 10.8-29 4.8-29Q4.2-27.4 3.55-26.9L3.55-26.9 0.4-27.3 0.4-34.45ZM45.8-29.05L45.8-29.05Q44.1-29.5 42.25-29.5 40.4-29.5 39.27-28.58 38.15-27.65 38.15-25.98 38.15-24.3 39-23.35 39.85-22.4 42.35-21.7L42.35-21.7 46.8-20.4Q50.4-19.35 52.52-17.13 54.65-14.9 54.65-10.6L54.65-10.6Q54.65-5.5 50.97-2.55 47.3 0.4 41.85 0.4L41.85 0.4Q38.85 0.4 35.67-0.38 32.5-1.15 30.4-2.55L30.4-2.55Q30.4-2.85 30.4-3.7 30.4-4.55 30.75-6.6 31.1-8.65 31.75-9.95L31.75-9.95 36.5-9.95Q37.3-8.4 37.45-5.8L37.45-5.8Q39.2-5.05 41.52-5.05 43.85-5.05 45.35-6.15 46.85-7.25 46.85-9.3L46.85-9.3Q46.85-10.25 46.7-10.88 46.55-11.5 45.77-12.23 45-12.95 43.55-13.4L43.55-13.4 38.4-14.9Q30.55-17.15 30.55-24.9L30.55-24.9Q30.55-29.45 33.85-32.18 37.15-34.9 42.47-34.9 47.8-34.9 52.9-32.5L52.9-32.5Q52.9-32.2 52.9-31.35 52.9-30.5 52.55-28.45 52.2-26.4 51.55-25.1L51.55-25.1 46.8-25.1Q45.95-26.3 45.8-29.05ZM57.8-34.5L69.5-34.5 70-30.35Q69.2-29.4 67.25-28.65L67.25-28.65 67.25-5.8Q69.25-5 70-4.15L70-4.15 69.5 0 57.8 0 57.3-4.15Q57.95-5 60.05-5.8L60.05-5.8 60.05-28.65Q58-29.4 57.3-30.35L57.3-30.35 57.8-34.5Z" opacity="1" transform="matrix(1,0,0,1,0,0)" fill="#ffffff" class="wordmark-text-0" data-fill-palette-color="primary" id="text-0"></path></svg></g></svg></g><g transform="matrix(1,0,0,1,0,153.2383842290317)"><svg viewBox="0 0 244.43135999999998 24.390192316628923" height="24.390192316628923" width="244.43135999999998"><g transform="matrix(1,0,0,1,0,0)"><svg width="244.43135999999998" viewBox="1 -37.9900016784668 495.8999938964844 49.4900016784668" height="24.390192316628923" data-palette-color="#ffffff"><path d="M11.06 0L11.06-4.2 14.45-4.2 14.45-33.01 6.01-33.01 6.01-27.25 1-27.25 1-37.01 34.01-37.01 34.01-27.25 29-27.25 29-33.01 19.24-33.01 19.24-4.2 23.05-4.2 23.05 0 11.06 0ZM55.64-25.44L55.64-19.95 51-19.95 51-21.51Q50.19-21.51 49.35-21.2 48.51-20.9 47.78-20.28 47.04-19.65 46.49-18.69 45.94-17.72 45.7-16.41L45.7-16.41 45.7-4.2 50-4.2 50 0 37.45 0 37.45-4.2 40.94-4.2 40.96-21.09 37.45-21.09 37.45-25.29 45.53-25.29 45.53-21.8Q45.97-22.58 46.52-23.25 47.07-23.93 47.74-24.43 48.41-24.93 49.23-25.21 50.05-25.49 51-25.49L51-25.49Q52.27-25.49 53.39-25.49 54.51-25.49 55.64-25.44L55.64-25.44ZM60.69-21.09L60.69-25.29 68.94-25.29 68.94-4.2 72.75-4.2 72.75 0 60.74 0 60.74-4.2 64.35-4.2 64.35-21.09 60.69-21.09ZM63.5-34.25L63.5-34.25Q63.5-34.89 63.75-35.46 64.01-36.04 64.44-36.46 64.86-36.89 65.45-37.15 66.04-37.4 66.69-37.4L66.69-37.4Q67.33-37.4 67.9-37.15 68.48-36.89 68.9-36.46 69.33-36.04 69.59-35.46 69.84-34.89 69.84-34.25L69.84-34.25Q69.84-33.59 69.59-33.01 69.33-32.42 68.9-31.97 68.48-31.52 67.9-31.26 67.33-31.01 66.69-31.01L66.69-31.01Q66.04-31.01 65.45-31.26 64.86-31.52 64.44-31.97 64.01-32.42 63.75-33.01 63.5-33.59 63.5-34.25ZM93.57 0L93.57-4.2 97.14-4.2 97.14-15.75Q97.14-18.65 95.66-20.15 94.18-21.66 91.42-21.66L91.42-21.66Q89.84-21.66 88.22-20.9 86.61-20.14 85.17-19.02L85.17-19.02 85.17-4.2 88.74-4.2 88.74 0 76.92 0 76.92-4.2 80.44-4.2 80.44-21.09 76.92-21.09 76.92-25.29 84.98-25.29 84.98-22.31 85.03-22.31Q85.83-23.02 86.75-23.66 87.66-24.29 88.66-24.76 89.67-25.22 90.75-25.49 91.84-25.76 93.03-25.76L93.03-25.76Q95.06-25.76 96.7-25.2 98.33-24.63 99.48-23.49 100.63-22.34 101.25-20.54 101.87-18.75 101.87-16.31L101.87-16.31 101.87-4.2 105.39-4.2 105.39 0 93.57 0ZM110.07-21.09L110.07-25.29 118.32-25.29 118.32-4.2 122.13-4.2 122.13 0 110.12 0 110.12-4.2 113.74-4.2 113.74-21.09 110.07-21.09ZM112.88-34.25L112.88-34.25Q112.88-34.89 113.14-35.46 113.39-36.04 113.82-36.46 114.25-36.89 114.83-37.15 115.42-37.4 116.08-37.4L116.08-37.4Q116.71-37.4 117.29-37.15 117.86-36.89 118.29-36.46 118.72-36.04 118.97-35.46 119.23-34.89 119.23-34.25L119.23-34.25Q119.23-33.59 118.97-33.01 118.72-32.42 118.29-31.97 117.86-31.52 117.29-31.26 116.71-31.01 116.08-31.01L116.08-31.01Q115.42-31.01 114.83-31.26 114.25-31.52 113.82-31.97 113.39-32.42 113.14-33.01 112.88-33.59 112.88-34.25ZM133.63-33.45L133.63-25.29 139.56-25.29 139.56-21.61 133.58-21.61 133.51-7.01Q133.51-5.52 133.85-4.59 134.19-3.66 134.95-3.31 135.71-2.95 136.66-2.95L136.66-2.95Q137.68-2.95 138.46-3.14 139.25-3.32 140.17-3.76L140.17-3.76 141.22-0.71Q140.05-0.1 138.76 0.26 137.46 0.61 135.71 0.61L135.71 0.61Q134.05 0.61 132.81 0.21 131.58-0.2 130.74-1.15 129.89-2.1 129.48-3.7 129.06-5.3 129.06-7.69L129.06-7.69 129.14-21.61 125.11-21.61 125.11-25.29 129.19-25.29 129.19-31.35 133.63-33.45ZM143.22-21.09L143.22-25.29 152.82-25.29 152.82-21.09 149.81-21.09 155.75-4.96 161.95-21.09 158.97-21.09 158.97-25.29 168.56-25.29 168.56-21.09 165.95-21.09 154.7 7.3 158.16 7.3 158.16 11.5 147.96 11.5 147.96 7.3 151.03 7.3 153.72 0.34 145.27-21.09 143.22-21.09ZM171.17 0Q171.17 0 171.17 0ZM204.57-26.95Q204.57-29.1 203.79-30.18 203.01-31.25 202.07-31.82 201.13-32.4 200-32.7 198.88-33.01 197.76-33.01L197.76-33.01Q195.9-33.01 194.51-32.58 193.12-32.15 192.2-31.42 191.29-30.69 190.82-29.71 190.36-28.74 190.36-27.66L190.36-27.66Q190.36-26.05 190.93-25.06 191.51-24.07 192.39-23.47 193.27-22.88 194.33-22.53 195.39-22.19 196.37-21.85L196.37-21.85 201.3-20.24Q203.52-19.53 205.22-18.63 206.91-17.72 208.06-16.49 209.21-15.26 209.81-13.65 210.4-12.04 210.4-9.91L210.4-9.91Q210.4-7.62 209.46-5.66 208.52-3.71 206.84-2.27 205.16-0.83 202.82-0.01 200.49 0.81 197.71 0.81L197.71 0.81Q194.85 0.81 192.83 0.16 190.8-0.49 189.42-1.57 188.04-2.66 187.21-4.05 186.38-5.44 185.92-6.91L185.92-6.91 184.06-6.91 184.06-11.11 190.21-11.11Q190.21-8.4 190.79-7.28 191.36-6.15 192.39-5.41 193.41-4.66 194.83-4.28 196.24-3.91 197.95-3.91L197.95-3.91Q199.61-3.91 200.94-4.3 202.27-4.69 203.21-5.43 204.15-6.18 204.66-7.24 205.16-8.3 205.16-9.64L205.16-9.64Q205.16-11.13 204.53-12.17 203.91-13.21 202.93-13.94 201.96-14.67 200.8-15.14 199.64-15.6 198.56-15.94L198.56-15.94 193.22-17.46Q191.46-17.99 190.01-18.82 188.55-19.65 187.52-20.85 186.48-22.05 185.92-23.65 185.36-25.24 185.36-27.34L185.36-27.34Q185.36-29.47 186.19-31.32 187.02-33.18 188.63-34.57 190.24-35.96 192.57-36.76 194.9-37.55 197.9-37.55L197.9-37.55Q199.88-37.55 201.55-37.08 203.23-36.62 204.58-35.78 205.94-34.94 206.97-33.75 208.01-32.57 208.72-31.15L208.72-31.15 210.55-31.15 210.55-26.95 204.57-26.95ZM213.75-12.65L213.75-12.65Q213.77-15.65 214.71-18.12 215.65-20.58 217.34-22.35 219.02-24.12 221.34-25.07 223.66-26.03 226.44-26.03L226.44-26.03Q229.25-26.03 231.58-25.07 233.91-24.12 235.57-22.38 237.23-20.63 238.16-18.16 239.09-15.7 239.09-12.7L239.09-12.7Q239.09-9.74 238.16-7.26 237.23-4.79 235.57-3 233.91-1.22 231.58-0.23 229.25 0.76 226.44 0.76L226.44 0.76Q223.59 0.76 221.27-0.22 218.95-1.2 217.29-2.97 215.63-4.74 214.7-7.2 213.77-9.67 213.75-12.65ZM218.56-12.65L218.56-12.65Q218.56-10.47 219.18-8.72 219.8-6.96 220.89-5.73 221.97-4.49 223.4-3.82 224.83-3.15 226.44-3.15L226.44-3.15Q228.13-3.15 229.58-3.81 231.03-4.47 232.11-5.7 233.18-6.93 233.79-8.69 234.4-10.45 234.4-12.65L234.4-12.65Q234.4-14.94 233.79-16.72 233.18-18.51 232.12-19.7 231.06-20.9 229.59-21.51 228.13-22.12 226.44-22.12L226.44-22.12Q224.83-22.12 223.4-21.51 221.97-20.9 220.89-19.7 219.8-18.51 219.18-16.72 218.56-14.94 218.56-12.65ZM252.34-29.39L252.34-25.29 258.2-25.29 258.2-21.61 252.34-21.61 252.34-4.2 256.3-4.2 256.3 0 243.99 0 243.99-4.2 247.8-4.2 247.8-21.61 243.63-21.61 243.63-25.29 247.8-25.29 247.8-29.25Q247.85-31.45 248.44-33.08 249.02-34.72 250.1-35.82 251.17-36.91 252.68-37.45 254.2-37.99 256.05-37.99L256.05-37.99Q257.35-37.99 258.37-37.87 259.4-37.74 260.2-37.54 261.01-37.33 261.63-37.08 262.26-36.84 262.74-36.6L262.74-36.6 261.35-33.35Q260.57-33.76 259.31-34.06 258.06-34.35 256.69-34.35L256.69-34.35Q254.66-34.35 253.5-33.09 252.34-31.84 252.34-29.39L252.34-29.39ZM269.5-33.45L269.5-25.29 275.44-25.29 275.44-21.61 269.45-21.61 269.38-7.01Q269.38-5.52 269.72-4.59 270.07-3.66 270.82-3.31 271.58-2.95 272.53-2.95L272.53-2.95Q273.56-2.95 274.34-3.14 275.12-3.32 276.05-3.76L276.05-3.76 277.1-0.71Q275.92-0.1 274.63 0.26 273.34 0.61 271.58 0.61L271.58 0.61Q269.92 0.61 268.69 0.21 267.45-0.2 266.61-1.15 265.77-2.1 265.35-3.7 264.94-5.3 264.94-7.69L264.94-7.69 265.01-21.61 260.98-21.61 260.98-25.29 265.06-25.29 265.06-31.35 269.5-33.45ZM278.83-21.09L278.83-25.29 286.84-25.29 286.84-21.09 285.66-21.09 290.08-4.96 296.14-25.29 299.95-25.29 305.73-5 310.35-21.09 308.88-21.09 308.88-25.29 316.89-25.29 316.89-21.09 314.72-21.09 307.78 0.39 303.58 0.39 297.85-19.8 292.13 0.39 287.89 0.39 281-21.09 278.83-21.09ZM335.69 0L335.69-2.34Q334.24-1 332.5-0.15 330.75 0.71 328.53 0.71L328.53 0.71Q326.68 0.71 325.13 0.12 323.58-0.46 322.45-1.48 321.33-2.49 320.71-3.83 320.08-5.18 320.08-6.69L320.08-6.69Q320.08-8.3 320.56-9.55 321.04-10.79 321.83-11.71 322.62-12.62 323.69-13.24 324.75-13.87 325.91-14.25 327.07-14.62 328.28-14.78 329.48-14.94 330.58-14.94L330.58-14.94Q332.34-14.94 333.54-14.83 334.73-14.72 335.71-14.53L335.71-14.53 335.73-16.6Q335.73-17.94 335.34-18.93 334.95-19.92 334.24-20.57 333.54-21.22 332.55-21.53 331.56-21.85 330.34-21.85L330.34-21.85Q329.19-21.85 328.14-21.69 327.09-21.53 326.18-21.28 325.26-21.02 324.49-20.69 323.72-20.36 323.19-20L323.19-20 321.7-23.14Q322.6-23.73 323.67-24.23 324.75-24.73 325.93-25.09 327.12-25.44 328.35-25.65 329.58-25.85 330.78-25.85L330.78-25.85Q332.98-25.85 334.73-25.33 336.49-24.8 337.71-23.71 338.93-22.61 339.59-20.91 340.25-19.21 340.25-16.85L340.25-16.85 340.23-4.2 343.03-4.2 343.03 0 335.69 0ZM329.53-3.1L329.53-3.1Q330.44-3.1 331.34-3.32 332.24-3.54 333.05-3.92 333.85-4.3 334.54-4.8 335.22-5.3 335.69-5.83L335.69-5.83 335.71-11.55 330.44-11.55Q329.12-11.55 328.03-11.25 326.95-10.96 326.15-10.4 325.36-9.84 324.92-9.01 324.48-8.18 324.48-7.1L324.48-7.1Q324.48-6.1 324.85-5.36 325.21-4.61 325.88-4.11 326.55-3.61 327.48-3.36 328.41-3.1 329.53-3.1ZM366.35-25.44L366.35-19.95 361.71-19.95 361.71-21.51Q360.9-21.51 360.06-21.2 359.22-20.9 358.49-20.28 357.75-19.65 357.2-18.69 356.65-17.72 356.41-16.41L356.41-16.41 356.41-4.2 360.71-4.2 360.71 0 348.16 0 348.16-4.2 351.65-4.2 351.67-21.09 348.16-21.09 348.16-25.29 356.24-25.29 356.24-21.8Q356.68-22.58 357.23-23.25 357.78-23.93 358.45-24.43 359.12-24.93 359.94-25.21 360.76-25.49 361.71-25.49L361.71-25.49Q362.98-25.49 364.1-25.49 365.22-25.49 366.35-25.44L366.35-25.44ZM394.1-12.06L375.89-12.06Q375.89-10.99 376.05-10.1 376.21-9.2 376.5-8.4L376.5-8.4Q377.4-5.96 379.39-4.72 381.38-3.49 383.9-3.49L383.9-3.49Q385.88-3.49 387.74-4.04 389.61-4.59 391.66-5.76L391.66-5.76 393.49-2.66Q391-0.95 388.49-0.12 385.97 0.71 383.26 0.71L383.26 0.71Q380.7 0.71 378.51-0.15 376.33-1 374.75-2.69 373.18-4.37 372.29-6.88 371.4-9.4 371.4-12.74L371.4-12.74Q371.4-15.45 372.15-17.86 372.91-20.26 374.41-22.06 375.91-23.85 378.14-24.9 380.36-25.95 383.31-25.95L383.31-25.95Q386.17-25.95 388.09-25.09 390-24.22 391.21-22.79 392.42-21.36 393.04-19.53 393.66-17.7 393.91-15.8L393.91-15.8Q394.03-14.87 394.07-13.92 394.1-12.96 394.1-12.06L394.1-12.06ZM382.99-22.14L382.99-22.14Q381.41-22.14 380.22-21.69 379.04-21.24 378.21-20.4 377.38-19.56 376.88-18.33 376.38-17.11 376.13-15.6L376.13-15.6 389.24-15.6Q389.15-17.02 388.79-18.21 388.44-19.41 387.71-20.29 386.97-21.17 385.83-21.66 384.68-22.14 382.99-22.14ZM397.84 0Q397.84 0 397.84 0ZM412.26-32.79L412.26-37.01 424.08-37.01 424.08-32.79 420.56-32.79 420.56-4.2 424.08-4.2 424.08 0 412.26 0 412.26-4.2 415.78-4.2 415.78-32.79 412.26-32.79ZM446.66 0L446.66-4.2 450.22-4.2 450.22-15.75Q450.22-18.65 448.75-20.15 447.27-21.66 444.51-21.66L444.51-21.66Q442.92-21.66 441.31-20.9 439.7-20.14 438.26-19.02L438.26-19.02 438.26-4.2 441.83-4.2 441.83 0 430.01 0 430.01-4.2 433.52-4.2 433.52-21.09 430.01-21.09 430.01-25.29 438.07-25.29 438.07-22.31 438.11-22.31Q438.92-23.02 439.84-23.66 440.75-24.29 441.75-24.76 442.75-25.22 443.84-25.49 444.93-25.76 446.12-25.76L446.12-25.76Q448.15-25.76 449.78-25.2 451.42-24.63 452.57-23.49 453.71-22.34 454.34-20.54 454.96-18.75 454.96-16.31L454.96-16.31 454.96-4.2 458.48-4.2 458.48 0 446.66 0ZM486.21-18.55L481.62-18.55Q480.59-20.39 479.02-21.24 477.44-22.09 475.37-22.09L475.37-22.09Q473.78-22.09 472.39-21.44 471-20.78 469.96-19.56 468.92-18.33 468.32-16.59 467.73-14.84 467.73-12.7L467.73-12.7Q467.73-10.57 468.32-8.86 468.92-7.15 469.97-5.94 471.02-4.74 472.4-4.09 473.78-3.44 475.37-3.44L475.37-3.44Q477.71-3.44 479.44-4.58 481.18-5.71 482.2-7.91L482.2-7.91 485.96-6.05Q485.23-4.49 484.16-3.25 483.08-2 481.73-1.12 480.37-0.24 478.75 0.23 477.13 0.71 475.32 0.71L475.32 0.71Q472.68 0.71 470.45-0.28 468.21-1.27 466.59-3.05 464.97-4.83 464.06-7.3 463.16-9.77 463.16-12.7L463.16-12.7Q463.16-15.63 464.11-18.09 465.06-20.56 466.72-22.33 468.39-24.1 470.61-25.1 472.83-26.1 475.37-26.1L475.37-26.1Q477.76-26.1 479.9-25.27 482.03-24.44 483.64-22.75L483.64-22.75 486.21-22.75 486.21-18.55ZM490.55-2.95L490.55-2.95Q490.55-3.59 490.81-4.16 491.06-4.74 491.5-5.16 491.94-5.59 492.52-5.85 493.09-6.1 493.75-6.1L493.75-6.1Q494.38-6.1 494.96-5.85 495.53-5.59 495.96-5.16 496.39-4.74 496.64-4.16 496.9-3.59 496.9-2.95L496.9-2.95Q496.9-2.29 496.64-1.71 496.39-1.12 495.96-0.67 495.53-0.22 494.96 0.04 494.38 0.29 493.75 0.29L493.75 0.29Q493.09 0.29 492.52 0.04 491.94-0.22 491.5-0.67 491.06-1.12 490.81-1.71 490.55-2.29 490.55-2.95Z" opacity="1" transform="matrix(1,0,0,1,0,0)" fill="#ffffff" class="slogan-text-1" data-fill-palette-color="secondary" id="text-1"></path></svg></g></svg></g></svg></g></svg></g><g transform="matrix(1,0,0,1,47.29746815999998,0)"><svg viewBox="0 0 151.05858048 143.0568248158176" height="143.0568248158176" width="151.05858048"><g><svg xmlns="http://www.w3.org/2000/svg" xmlns:xlink="http://www.w3.org/1999/xlink" version="1.1" x="0" y="0" viewBox="5.000801086425781 7.382124900817871 89.9900894165039 85.22320556640625" enable-background="new 0 0 100 100" xml:space="preserve" height="143.0568248158176" width="151.05858048" class="icon-icon-0" data-fill-palette-color="accent" id="icon-0"><path d="M93.9 57.9c4.2 14.4-4.1 29.4-18.5 33.6-3.9 1.1-7.8 1.3-11.5 0.8-0.1 0-0.2 0-0.4 0 4.1-4.7 7.1-10.5 8.7-17 1.5-6 1.6-12 0.5-17.6-0.9-4.4-5.6-7-9.7-5.2-1.5 0.7-2.8 1.8-3.5 3.2-0.7 1.4-1 3.1-0.7 4.7 0.7 3.7 0.7 7.7-0.3 11.6-3.6 14.6-18.2 23.4-32.8 19.8C11.1 88.2 2.2 73.5 5.8 59c1-3.9 2.7-7.4 5.1-10.3 0.1-0.1 0.2-0.2 0.2-0.3 2.1 5.9 5.5 11.4 10.3 16 4.4 4.2 9.6 7.3 15 9.2 4.3 1.5 8.9-1.3 9.4-5.8 0.1-1 0-2-0.2-2.9-0.6-2.2-2.3-4-4.5-4.7-3.6-1.2-7-3.3-9.9-6.1C20.4 43.7 20 26.6 30.4 15.7 40.8 4.9 58 4.6 68.8 14.9c2.9 2.8 5 6.1 6.4 9.6 0 0.1 0.1 0.2 0.2 0.4-6.1-1.2-12.6-0.9-19 1-5.9 1.7-11.1 4.6-15.5 8.4-3.4 3-3.3 8.3 0.3 11.1 1.8 1.4 4.2 1.8 6.3 1.2 1-0.3 1.9-0.8 2.7-1.5 2.9-2.5 6.3-4.4 10.2-5.5C74.8 35.3 89.7 43.5 93.9 57.9z" fill="#ffffff" data-fill-palette-color="accent"></path></svg></g></svg></g><g></g></svg></g></svg></g><g><path d="M123.204 36.473A45.083 45.083 0 0 1 272.316 36.473L268.213 36.473A40.98 40.98 0 0 0 127.307 36.473L123.204 36.473M123.204 210.727A45.083 45.083 0 0 0 272.316 210.727L268.213 210.727A40.98 40.98 0 0 1 127.307 210.727L123.204 210.727" fill="#ffffff" stroke="transparent" data-fill-palette-color="tertiary"></path></g></svg></g><defs></defs></svg><rect width="395.52" height="247.2" fill="none" stroke="none" visibility="hidden"></rect></g></svg></g></svg>